<svg id="Capa_1" enable-background="new 0 0 512.024 512.024" height="512" viewBox="0 0 512.024 512.024" width="512" xmlns="http://www.w3.org/2000/svg"><g><g><path d="m123.107 227.204h91.895c3.866 0 7 3.134 7 7v163.887c0 3.593-3.139 6.395-6.706 5.967-64.753-7.76-123.713-41.462-163.266-93.556l-.635-.836c-3.476-4.578-10.779-2.12-10.779 3.628v48.087c0 51.336 50.042 94.395 148.275 106.434 19.859 2.434 38.377 11.187 52.532 24.902l10.414 10.091c2.327 2.255 6.024 2.255 8.351 0l10.414-10.091c14.154-13.715 32.673-22.469 52.532-24.902 98.233-12.039 148.275-55.098 148.275-106.434v-48.087c0-5.748-7.303-8.206-10.779-3.628l-2.327 3.065c-39.057 51.451-97.608 84.458-161.64 91.41-3.545.385-6.639-2.409-6.639-5.975v-163.962c0-3.866 3.134-7 7-7h91.895c16.276 0 29.47-13.194 29.47-29.47 0-16.276-13.194-29.47-29.47-29.47h-91.895c-3.866 0-7-3.134-7-7v-51.726c0-2.116.974-4.099 2.607-5.445 12.212-10.057 20.066-24.92 20.066-41.667 0-30.335-25.377-54.926-56.683-54.926s-56.683 24.591-56.683 54.926c0 16.748 7.854 31.611 20.066 41.667 1.634 1.345 2.607 3.328 2.607 5.445v51.726c0 3.866-3.134 7-7 7h-91.895c-16.276 0-29.47 13.194-29.47 29.47-.003 16.276 13.192 29.47 29.468 29.47z" fill="#eaf6ff"/><g fill="#d8ecfe"><path d="m260.022 234.204v163.963c0 3.566 3.094 6.36 6.639 5.975 8.017-.87 15.948-2.15 23.766-3.822-.257-.668-.405-1.391-.405-2.153v-163.963c0-3.866 3.134-7 7-7h-30c-3.866 0-7 3.135-7 7z"/><path d="m388.388 197.734c0 16.276-13.195 29.47-29.47 29.47h30c16.276 0 29.47-13.194 29.47-29.47 0-16.276-13.195-29.47-29.47-29.47h-30c16.275 0 29.47 13.194 29.47 29.47z"/><path d="m460.628 309.667-2.327 3.065c-5.282 6.959-10.933 13.567-16.894 19.833v28.817c0 51.336-50.042 94.395-148.275 106.434-19.67 2.411-38.019 11.029-52.12 24.52.135.129.277.252.411.382l10.414 10.091c2.327 2.255 6.024 2.255 8.351 0l10.414-10.091c14.154-13.715 32.673-22.469 52.531-24.902 98.233-12.039 148.275-55.098 148.275-106.434v-48.087c-.001-5.748-7.304-8.206-10.78-3.628z"/><path d="m282.695 62.426c0 16.748-7.854 31.61-20.066 41.667-1.634 1.345-2.607 3.328-2.607 5.445v51.726c0 3.866 3.134 7 7 7h30c-3.866 0-7-3.134-7-7v-51.726c0-2.116.974-4.099 2.607-5.445 12.212-10.057 20.066-24.92 20.066-41.667 0-30.335-25.377-54.926-56.683-54.926-5.195 0-10.221.69-15 1.958 24.023 6.375 41.683 27.666 41.683 52.968z"/></g><circle cx="256.012" cy="60.63" fill="#fff" r="22.5"/></g><path d="m388.068 445.236c-19.072 7.026-41.227 12.118-65.848 15.135-21.42 2.625-41.604 12.2-56.838 26.96l-9.37 9.079-9.37-9.079c-15.233-14.76-35.418-24.335-56.838-26.96-45.51-5.577-82.639-18.38-107.372-37.025-22.449-16.922-34.315-38.35-34.315-61.965v-43.668c19.909 25.51 44.241 46.593 72.37 62.701 29.067 16.646 60.666 27.106 93.917 31.091 3.818.459 7.669-.746 10.552-3.305 2.89-2.563 4.547-6.249 4.547-10.109v-163.886c0-7.995-6.505-14.5-14.5-14.5h-91.896c-12.114 0-21.971-9.856-21.971-21.971 0-12.114 9.856-21.97 21.971-21.97h26.198c4.143 0 7.5-3.358 7.5-7.5s-3.357-7.5-7.5-7.5h-26.198c-20.386 0-36.971 16.585-36.971 36.97 0 20.386 16.585 36.971 36.971 36.971h91.396v161.7c-30.626-3.892-59.74-13.647-86.562-29.007-27.349-15.661-50.879-36.329-69.938-61.43-3.782-4.982-9.76-7.464-15.694-5.466-5.584 1.88-9.192 6.902-9.192 12.794v48.087c0 28.507 13.931 54.076 40.286 73.943 26.835 20.229 66.455 34.038 114.577 39.936 18.196 2.23 35.323 10.343 48.225 22.844l10.413 10.09c2.635 2.553 6.015 3.829 9.395 3.829s6.761-1.276 9.394-3.829l10.414-10.091c12.901-12.501 30.028-20.614 48.225-22.844 25.768-3.158 49.053-8.523 69.209-15.949 3.887-1.432 5.877-5.743 4.445-9.63-1.433-3.887-5.74-5.877-9.632-4.446zm81.647-144.735c-7.16-2.41-13.059 1.995-17.388 7.697-37.254 49.074-93.601 81.19-154.806 88.3v-161.793h91.396c20.386 0 36.971-16.585 36.971-36.971 0-20.385-16.585-36.97-36.971-36.97h-91.396v-50.984c14.411-11.928 22.673-29.178 22.673-47.354.001-34.422-28.791-62.426-64.182-62.426s-64.183 28.004-64.183 62.426c0 18.176 8.261 35.426 22.673 47.354v50.984h-30.197c-4.143 0-7.5 3.358-7.5 7.5s3.357 7.5 7.5 7.5h30.697c7.995 0 14.5-6.505 14.5-14.5v-51.726c0-4.346-1.946-8.44-5.34-11.234-11.016-9.071-17.333-22.148-17.333-35.878 0-26.15 22.063-47.426 49.183-47.426s49.183 21.275 49.183 47.426c0 13.729-6.317 26.807-17.333 35.877-3.394 2.794-5.34 6.889-5.34 11.235v51.726c0 7.995 6.505 14.5 14.5 14.5h91.896c12.114 0 21.971 9.856 21.971 21.97 0 12.115-9.856 21.971-21.971 21.971h-91.896c-7.995 0-14.5 6.505-14.5 14.5v163.963c0 3.833 1.637 7.5 4.49 10.06 2.849 2.555 6.662 3.783 10.458 3.371 65.73-7.135 126.358-41.33 166.438-93.849v43.632c0 27.438-15.681 51.44-45.346 69.412-3.543 2.146-4.675 6.758-2.529 10.301 2.166 3.578 6.807 4.645 10.301 2.528 33.903-20.538 52.574-49.745 52.574-82.241v-48.087c-.001-5.892-3.609-10.914-9.193-12.794zm-183.703-239.871c0-16.542-13.458-30-30-30s-30 13.458-30 30 13.458 30 30 30 30-13.458 30-30zm-45 0c0-8.271 6.729-15 15-15s15 6.729 15 15-6.729 15-15 15-15-6.729-15-15z"/></g></svg>